<svg width="24" height="18" viewBox="0 0 24 18" fill="none" xmlns="http://www.w3.org/2000/svg">
<path d="M17.6598 17.9209H12.8864C14.1778 16.3705 15.2155 14.6605 15.9995 12.7909C16.7374 10.9213 17.0602 9.34808 16.968 8.07128L18.1441 9.57608C16.7143 9.57608 15.5152 9.12008 14.5467 8.20808C13.5782 7.29608 13.0939 6.17888 13.0939 4.85648C13.0939 3.48847 13.5551 2.32567 14.4775 1.36806C15.3999 0.456064 16.5529 6.48499e-05 17.9365 6.48499e-05C19.4124 6.48499e-05 20.6576 0.524466 21.6722 1.57327C22.6407 2.66767 23.125 4.03567 23.125 5.67727C23.125 6.90848 22.8713 8.25368 22.364 9.71288C21.8567 11.2177 21.188 12.6769 20.3578 14.0905C19.5277 15.5497 18.6283 16.8265 17.6598 17.9209ZM5.7609 17.9209H0.987499C2.27885 16.3705 3.31655 14.6605 4.10058 12.7909C4.8385 10.9213 5.16134 9.34808 5.0691 8.07128L6.24516 9.57608C4.81544 9.57608 3.61633 9.12008 2.64781 8.20808C1.67929 7.29608 1.19504 6.17888 1.19504 4.85648C1.19504 3.48847 1.65623 2.32567 2.57863 1.36806C3.50103 0.456064 4.65402 6.48499e-05 6.03761 6.48499e-05C7.51345 6.48499e-05 8.75868 0.524466 9.77332 1.57327C10.7418 2.66767 11.2261 4.03567 11.2261 5.67727C11.2261 6.90848 10.9724 8.25368 10.4651 9.71288C9.9578 11.2177 9.28906 12.6769 8.4589 14.0905C7.62875 15.5497 6.72941 16.8265 5.7609 17.9209Z" fill="#82DD0F"/>
</svg>
