<svg width="18" height="18" viewBox="0 0 18 18" fill="none" xmlns="http://www.w3.org/2000/svg">
<path d="M8.71448 0.914126C8.80389 0.636901 9.19611 0.6369 9.28552 0.914125L11.1664 6.74615C11.2064 6.8703 11.3221 6.95435 11.4525 6.95407L17.5803 6.94067C17.8716 6.94004 17.9928 7.31306 17.7568 7.48376L12.7914 11.0748C12.6857 11.1512 12.6416 11.2872 12.6821 11.4112L14.5885 17.2349C14.6791 17.5117 14.3618 17.7423 14.1265 17.5706L9.17687 13.9579C9.0715 13.881 8.9285 13.881 8.82313 13.9579L3.87351 17.5706C3.63823 17.7423 3.32092 17.5117 3.41153 17.2349L5.31787 11.4112C5.35845 11.2872 5.31426 11.1512 5.20856 11.0748L0.243191 7.48376C0.00716281 7.31306 0.128366 6.94004 0.419651 6.94067L6.54745 6.95407C6.6779 6.95435 6.79358 6.8703 6.83362 6.74615L8.71448 0.914126Z" fill="#82DD0F"/>
</svg>
