<svg width="34" height="34" viewBox="0 0 34 34" fill="none" xmlns="http://www.w3.org/2000/svg">
<path d="M13.725 11.8536C13.45 11.8286 13.2068 12.0313 13.1818 12.3063C13.1568 12.5813 13.3594 12.8245 13.6345 12.8495L13.725 11.8536ZM20.9845 13.0156L21.4824 12.9703C21.4606 12.73 21.2701 12.5395 21.0297 12.5176L20.9845 13.0156ZM21.1506 20.3656C21.1756 20.6406 21.4188 20.8433 21.6938 20.8183C21.9688 20.7933 22.1715 20.5501 22.1465 20.2751L21.1506 20.3656ZM12.6621 20.6308C12.4668 20.8261 12.4668 21.1427 12.6621 21.338C12.8574 21.5332 13.1739 21.5332 13.3692 21.338L12.6621 20.6308ZM13.6797 12.3515L13.6345 12.8495L20.9392 13.5135L20.9845 13.0156L21.0297 12.5176L13.725 11.8536L13.6797 12.3515ZM20.9845 13.0156L20.4865 13.0609L21.1506 20.3656L21.6485 20.3203L22.1465 20.2751L21.4824 12.9703L20.9845 13.0156ZM20.9845 13.0156L20.6309 12.662L12.6621 20.6308L13.0157 20.9844L13.3692 21.338L21.338 13.3691L20.9845 13.0156ZM17 4.25L17 4.75C23.7655 4.75 29.25 10.2345 29.25 17L29.75 17L30.25 17C30.25 9.68223 24.3178 3.75 17 3.75L17 4.25ZM29.75 17L29.25 17C29.25 23.7655 23.7655 29.25 17 29.25L17 29.75L17 30.25C24.3178 30.25 30.25 24.3178 30.25 17L29.75 17ZM17 29.75L17 29.25C10.2345 29.25 4.75 23.7655 4.75 17L4.25 17L3.75 17C3.75 24.3178 9.68223 30.25 17 30.25L17 29.75ZM4.25 17L4.75 17C4.75 10.2345 10.2345 4.75 17 4.75L17 4.25L17 3.75C9.68223 3.75 3.75 9.68223 3.75 17L4.25 17Z" fill="white"/>
</svg>
