<svg width="17" height="16" viewBox="0 0 17 16" fill="none" xmlns="http://www.w3.org/2000/svg">
<path d="M8.04883 1.33347V5.33347L9.38216 4.00013" stroke="#82DD0F" stroke-linecap="round" stroke-linejoin="round"/>
<path d="M8.04879 5.33346L6.71545 4.00012" stroke="#82DD0F" stroke-linecap="round" stroke-linejoin="round"/>
<path d="M4.71549 8.00012C2.04883 8.00012 2.04883 9.19346 2.04883 10.6668V11.3335C2.04883 13.1735 2.04883 14.6668 5.38216 14.6668H10.7155C13.3822 14.6668 14.0488 13.1735 14.0488 11.3335V10.6668C14.0488 9.19346 14.0488 8.00012 11.3822 8.00012C10.7155 8.00012 10.5288 8.14012 10.1822 8.40012L9.50216 9.12012C8.7155 9.96012 7.38216 9.96012 6.58883 9.12012L5.91549 8.40012C5.56883 8.14012 5.38216 8.00012 4.71549 8.00012Z" stroke="#82DD0F" stroke-miterlimit="10" stroke-linecap="round" stroke-linejoin="round"/>
<path d="M3.3822 8.00012V5.33345C3.3822 3.99345 3.3822 2.88678 5.3822 2.69345" stroke="#82DD0F" stroke-miterlimit="10" stroke-linecap="round" stroke-linejoin="round"/>
<path d="M12.7155 8.00012V5.33345C12.7155 3.99345 12.7155 2.88678 10.7155 2.69345" stroke="#82DD0F" stroke-miterlimit="10" stroke-linecap="round" stroke-linejoin="round"/>
</svg>
