<svg width="40" height="40" viewBox="0 0 40 40" fill="none" xmlns="http://www.w3.org/2000/svg">
<rect width="40" height="40" rx="20" fill="#81DC0E" fill-opacity="0.3"/>
<path d="M29.7767 20.5735C29.7767 20.0212 29.329 19.5735 28.7767 19.5735C28.2245 19.5735 27.7767 20.0212 27.7767 20.5735H29.7767ZM19.5134 12.3971C20.0657 12.3971 20.5134 11.9493 20.5134 11.3971C20.5134 10.8448 20.0657 10.3971 19.5134 10.3971V12.3971ZM25.1451 20.5735C25.1451 20.0212 24.6973 19.5735 24.1451 19.5735C23.5928 19.5735 23.1451 20.0212 23.1451 20.5735H25.1451ZM19.5134 16.9853C20.0657 16.9853 20.5134 16.5376 20.5134 15.9853C20.5134 15.433 20.0657 14.9853 19.5134 14.9853V16.9853ZM24.311 17.0435C24.7034 16.6549 24.7064 16.0217 24.3177 15.6293C23.929 15.237 23.2958 15.234 22.9035 15.6227L24.311 17.0435ZM18.8096 19.6781C18.4172 20.0668 18.4143 20.7 18.8029 21.0923C19.1916 21.4847 19.8248 21.4877 20.2171 21.099L18.8096 19.6781ZM29.75 13.4944L30.4538 14.2048C30.7236 13.9375 30.8187 13.5403 30.6992 13.1798C30.5797 12.8192 30.2662 12.5575 29.8901 12.5042L29.75 13.4944ZM26.0655 17.1443L25.752 18.0939C26.1091 18.2118 26.5021 18.1194 26.7693 17.8547L26.0655 17.1443ZM22.7904 13.8999L22.0867 13.1895C21.8156 13.458 21.721 13.8573 21.8426 14.2188L22.7904 13.8999ZM26.4749 10.25L27.4647 10.1073C27.4108 9.73345 27.1508 9.42189 26.7927 9.30185C26.4346 9.18181 26.0395 9.27377 25.7711 9.53957L26.4749 10.25ZM23.6092 16.3332L22.6614 16.6521C22.7618 16.9504 22.9968 17.1841 23.2956 17.2828L23.6092 16.3332ZM26.8843 13.0888L25.8945 13.2316C25.958 13.6714 26.3041 14.0167 26.7442 14.079L26.8843 13.0888ZM28.7767 20.5735H27.7767C27.7767 25.0804 24.086 28.75 19.5134 28.75V29.75V30.75C25.1728 30.75 29.7767 26.2027 29.7767 20.5735H28.7767ZM19.5134 29.75V28.75C14.9407 28.75 11.25 25.0804 11.25 20.5735H10.25H9.25C9.25 26.2027 13.854 30.75 19.5134 30.75V29.75ZM10.25 20.5735H11.25C11.25 16.0667 14.9407 12.3971 19.5134 12.3971V11.3971V10.3971C13.854 10.3971 9.25 14.9444 9.25 20.5735H10.25ZM24.1451 20.5735H23.1451C23.1451 22.5464 21.528 24.1618 19.5134 24.1618V25.1618V26.1618C22.6148 26.1618 25.1451 23.6687 25.1451 20.5735H24.1451ZM19.5134 25.1618V24.1618C17.4987 24.1618 15.8817 22.5464 15.8817 20.5735H14.8817H13.8817C13.8817 23.6687 16.412 26.1618 19.5134 26.1618V25.1618ZM14.8817 20.5735H15.8817C15.8817 18.6007 17.4987 16.9853 19.5134 16.9853V15.9853V14.9853C16.412 14.9853 13.8817 17.4784 13.8817 20.5735H14.8817ZM23.6072 16.3331L22.9035 15.6227L18.8096 19.6781L19.5134 20.3886L20.2171 21.099L24.311 17.0435L23.6072 16.3331ZM29.75 13.4944L29.0462 12.7839L25.3618 16.4339L26.0655 17.1443L26.7693 17.8547L30.4538 14.2048L29.75 13.4944ZM22.7904 13.8999L23.4942 14.6104L27.1787 10.9604L26.4749 10.25L25.7711 9.53957L22.0867 13.1895L22.7904 13.8999ZM26.0655 17.1443L26.3791 16.1947L23.9228 15.3836L23.6092 16.3332L23.2956 17.2828L25.752 18.0939L26.0655 17.1443ZM23.6092 16.3332L24.557 16.0143L23.7382 13.581L22.7904 13.8999L21.8426 14.2188L22.6614 16.6521L23.6092 16.3332ZM26.4749 10.25L25.4851 10.3927L25.8945 13.2316L26.8843 13.0888L27.8741 12.9461L27.4647 10.1073L26.4749 10.25ZM26.8843 13.0888L26.7442 14.079L29.6099 14.4845L29.75 13.4944L29.8901 12.5042L27.0244 12.0987L26.8843 13.0888Z" fill="white"/>
</svg>
