<svg width="40" height="40" viewBox="0 0 40 40" fill="none" xmlns="http://www.w3.org/2000/svg">
<rect width="40" height="40" rx="20" fill="#81DC0E" fill-opacity="0.3"/>
<path d="M20.1202 20.78C20.0502 20.77 19.9602 20.77 19.8802 20.78C18.1202 20.72 16.7202 19.28 16.7202 17.51C16.7202 15.7 18.1802 14.23 20.0002 14.23C21.8102 14.23 23.2802 15.7 23.2802 17.51C23.2702 19.28 21.8802 20.72 20.1202 20.78Z" stroke="white" stroke-width="1.5" stroke-linecap="round" stroke-linejoin="round"/>
<path d="M26.7398 27.38C24.9598 29.01 22.5998 30 19.9998 30C17.3998 30 15.0398 29.01 13.2598 27.38C13.3598 26.44 13.9598 25.52 15.0298 24.8C17.7698 22.98 22.2498 22.98 24.9698 24.8C26.0398 25.52 26.6398 26.44 26.7398 27.38Z" stroke="white" stroke-width="1.5" stroke-linecap="round" stroke-linejoin="round"/>
<path d="M20 30C25.5228 30 30 25.5228 30 20C30 14.4772 25.5228 10 20 10C14.4772 10 10 14.4772 10 20C10 25.5228 14.4772 30 20 30Z" stroke="white" stroke-width="1.5" stroke-linecap="round" stroke-linejoin="round"/>
</svg>
