<svg width="40" height="40" viewBox="0 0 40 40" fill="none" xmlns="http://www.w3.org/2000/svg">
<path d="M20 39.5C9.23045 39.5 0.499999 30.7696 0.499998 20C0.499998 9.23045 9.23045 0.500003 20 0.500002C30.7695 0.500001 39.5 9.23045 39.5 20C39.5 30.7696 30.7696 39.5 20 39.5Z" stroke="#D1E0CD"/>
<path d="M28.4445 20.0556C28.7206 20.0556 28.9445 19.8317 28.9445 19.5556C28.9445 19.2794 28.7206 19.0556 28.4445 19.0556L28.4445 20.0556ZM11.202 19.202C11.0068 19.3973 11.0068 19.7139 11.202 19.9091L14.384 23.0911C14.5793 23.2864 14.8958 23.2864 15.0911 23.0911C15.2864 22.8958 15.2864 22.5792 15.0911 22.384L12.2627 19.5556L15.0911 16.7271C15.2864 16.5319 15.2864 16.2153 15.0911 16.02C14.8958 15.8248 14.5793 15.8248 14.384 16.02L11.202 19.202ZM28.4445 19.5556L28.4445 19.0556L11.5556 19.0556L11.5556 19.5556L11.5556 20.0556L28.4445 20.0556L28.4445 19.5556Z" fill="#D1E0CD"/>
</svg>
